<?xml version="1.0" encoding="utf-8"?><svg viewBox="0 0 196 35" xmlns="http://www.w3.org/2000/svg" xmlns:xlink="http://www.w3.org/1999/xlink"><style>:root>svg{display:none}:root>svg:target{display:block}</style><svg fill="none" viewBox="0 0 196 35" id="logo-grey" xmlns="http://www.w3.org/2000/svg"><path d="M36.839 13.822c2.074 1.745 3.112 4.257 3.112 7.534.001.73-.06 1.459-.186 2.178-.784 4.443-2.648 7.723-5.594 9.838-1.536 1.078-3.133 1.618-4.792 1.62H10.503l.372-2.119h5.542l5.47-30.757h-5.531L16.728 0H35.53c2.574 0 4.525.912 5.853 2.735.913 1.288 1.225 2.823.934 4.608-.54 2.945-2.283 5.062-5.23 6.351l-.248.128zM18.72 32.873h10.96c2.157 0 4.045-1.162 5.665-3.486 1.122-1.577 1.89-3.528 2.302-5.853.54-3.154-.082-5.665-1.866-7.532-.873-.913-1.807-1.37-2.803-1.37h-11.01L18.72 32.873zm3.613-20.357H33.29c2.449 0 4.379-.912 5.79-2.735a5.634 5.634 0 001.12-2.428c.33-1.993-.355-3.487-2.055-4.481a5.788 5.788 0 00-2.922-.753H24.2l-1.866 10.397zM40.596 32.873h5.988l5.47-30.754h-5.975L46.45.002h20.734c2.655 0 4.875.956 6.66 2.866 1.95 2.074 2.635 4.772 2.056 8.093-.701 3.859-2.945 6.889-6.732 9.09-2.12 1.204-4.07 1.806-5.853 1.804H50.869l-1.992 11.02h8.468l-.375 2.119H40.224l.372-2.12zm10.648-13.136h12.45c1.951 0 3.985-.83 6.102-2.49 2.197-1.7 3.526-3.798 3.984-6.292.623-3.57-.435-6.164-3.174-7.784a7.386 7.386 0 00-3.798-1.052H54.355l-3.111 17.618zM99.472 9.962l-1.553 8.903h-2.12l.683-3.86H84.404l-3.175 17.868h16.997l1.742-5.415h2.119l-2.119 7.534H72.576l.372-2.119h6.036l5.47-30.757h-6.027L78.8 0h27.395l-.747 7.153h-2.119l.375-5.05H86.707l-1.929 10.773h12.089l.499-2.927 2.106.013zM144.982 2.119l-5.47 30.756h2.864l-.375 2.119h-11.712l.372-2.119h6.539l5.47-30.756h-.311L126.18 27.458h-1.309l-7.47-25.34h-.499l-5.47 30.757h6.474l-.375 2.119h-11.647l.372-2.119h2.927l5.47-30.756h-2.918l.374-2.117h7.48l-.124.686 6.646 22.66L140.81.499l.125-.498h7.533l-.372 2.119h-3.114zM160.857 19.612h-1.683c-2.658 0-4.902-.83-6.732-2.49-1.993-1.824-2.72-4.252-2.18-7.284.794-4.445 3.333-7.433 7.616-8.965A13.8 13.8 0 01162.673 0h21.779l-.372 2.119h-6.04l-5.47 30.756h6.032l-.375 2.119h-16.374l.374-2.119h8.031l2.366-13.254h-8.468a31.731 31.731 0 00-8.836 9.09c-.665.995-1.889 3.091-3.673 6.289h-5.857l.374-2.119h4.351c2.574-4.565 4.753-7.823 6.539-9.774a34.372 34.372 0 013.803-3.495zm12.14-2.116l2.735-15.38h-13.435c-3.445 0-6.102 1.123-7.97 3.367a9.09 9.09 0 00-1.929 4.357c-.581 3.322.644 5.626 3.673 6.911a8.488 8.488 0 003.486.747l13.44-.002z" fill="#D00"/><path d="M0 14.309h193.716l-6.383 5.743" fill="#fff" fill-opacity=".3"/><path d="M0 14.309h193.716l-6.383 5.743" stroke="#D00" stroke-miterlimit="10"/><path d="M0 12.726h193.716l-6.383-5.114" fill="#fff" fill-opacity=".3"/><path d="M0 12.726h193.716l-6.383-5.114" stroke="#D00" stroke-miterlimit="10"/></svg><svg fill="none" viewBox="0 0 196 35" id="logo-white" xmlns="http://www.w3.org/2000/svg"><path d="M36.839 13.822c2.074 1.745 3.112 4.257 3.112 7.534.001.73-.06 1.459-.186 2.178-.784 4.443-2.648 7.723-5.594 9.838-1.536 1.078-3.133 1.618-4.792 1.62H10.503l.372-2.119h5.542l5.47-30.757h-5.531L16.728 0H35.53c2.574 0 4.525.912 5.853 2.735.913 1.288 1.225 2.823.934 4.608-.54 2.945-2.283 5.062-5.23 6.351l-.248.128zM18.72 32.873h10.96c2.157 0 4.045-1.162 5.665-3.486 1.122-1.577 1.89-3.528 2.302-5.853.54-3.154-.082-5.665-1.866-7.532-.873-.913-1.807-1.37-2.803-1.37h-11.01L18.72 32.873zm3.613-20.357H33.29c2.449 0 4.379-.912 5.79-2.735a5.634 5.634 0 001.12-2.428c.33-1.993-.355-3.487-2.055-4.481a5.788 5.788 0 00-2.922-.753H24.2l-1.866 10.397zM40.596 32.873h5.988l5.47-30.754h-5.975L46.45.002h20.734c2.655 0 4.875.956 6.66 2.866 1.95 2.074 2.635 4.772 2.056 8.093-.701 3.859-2.945 6.889-6.732 9.09-2.12 1.204-4.07 1.806-5.853 1.804H50.869l-1.992 11.02h8.468l-.375 2.119H40.224l.372-2.12zm10.648-13.136h12.45c1.951 0 3.985-.83 6.102-2.49 2.197-1.7 3.526-3.798 3.984-6.292.623-3.57-.435-6.164-3.174-7.784a7.386 7.386 0 00-3.798-1.052H54.355l-3.111 17.618zM99.472 9.962l-1.553 8.903h-2.12l.683-3.86H84.404l-3.175 17.868h16.997l1.742-5.415h2.119l-2.119 7.534H72.576l.372-2.119h6.036l5.47-30.757h-6.027L78.8 0h27.395l-.747 7.153h-2.119l.375-5.05H86.707l-1.929 10.773h12.089l.499-2.927 2.106.013zM144.982 2.119l-5.47 30.756h2.864l-.375 2.119h-11.712l.372-2.119h6.539l5.47-30.756h-.311L126.18 27.458h-1.309l-7.47-25.34h-.499l-5.47 30.757h6.474l-.375 2.119h-11.647l.372-2.119h2.927l5.47-30.756h-2.918l.374-2.117h7.48l-.124.686 6.646 22.66L140.81.499l.125-.498h7.533l-.372 2.119h-3.114zM160.857 19.612h-1.683c-2.658 0-4.902-.83-6.732-2.49-1.993-1.824-2.72-4.252-2.18-7.284.794-4.445 3.333-7.433 7.616-8.965A13.8 13.8 0 01162.673 0h21.779l-.372 2.119h-6.04l-5.47 30.756h6.032l-.375 2.119h-16.374l.374-2.119h8.031l2.366-13.254h-8.468a31.731 31.731 0 00-8.836 9.09c-.665.995-1.889 3.091-3.673 6.289h-5.857l.374-2.119h4.351c2.574-4.565 4.753-7.823 6.539-9.774a34.372 34.372 0 013.803-3.495zm12.14-2.116l2.735-15.38h-13.435c-3.445 0-6.102 1.123-7.97 3.367a9.09 9.09 0 00-1.929 4.357c-.581 3.322.644 5.626 3.673 6.911a8.488 8.488 0 003.486.747l13.44-.002z" fill="#fff"/><path d="M0 12.726h193.716l-6.383-5.114M0 14.309h193.716l-6.383 5.743" stroke="#fff" stroke-miterlimit="10"/></svg></svg>